<svg xmlns="http://www.w3.org/2000/svg" viewBox="0 0 108.84 108.9">
    <defs>
        <style>
            .cls-1 {
                fill: #fff;
            }
        </style>
    </defs>
    <g id="Calque_2" data-name="Calque 2">
        <g id="Calque_1-2" data-name="Calque 1">
            <g>
                <path class="cls-1"
                    d="M54.45,26.54A27.88,27.88,0,1,0,82.3,54.45,27.93,27.93,0,0,0,54.45,26.54Zm0,46A18.13,18.13,0,1,1,72.58,54.45,18.15,18.15,0,0,1,54.45,72.58Z" />
                <path class="cls-1" d="M90.42,25.6a6.76,6.76,0,1,1-6.76-6.82A6.76,6.76,0,0,1,90.42,25.6Z" />
                <path class="cls-1"
                    d="M108.49,30.75A30.16,30.16,0,0,0,78.09.36S67,0,55.81,0H54.45C42.78,0,31.17.36,31.17.36A30.82,30.82,0,0,0,.36,31.17S0,41.18,0,51.9v1.37c0,12,.36,24.47.36,24.47a30.77,30.77,0,0,0,30.81,30.75s10.84.41,22.1.41c12,0,24.82-.41,24.82-.41a30.12,30.12,0,0,0,30.4-30.4s.35-12.26.35-24.05V51.31C108.78,40.76,108.49,30.75,108.49,30.75ZM98.77,76.2c0,14-8.65,22.57-22.57,22.57,0,0-10.79.24-20.21.3H53.5c-9.24,0-20.5-.3-20.5-.3-13.92,0-22.93-9-22.93-22.93,0,0-.29-12.5-.29-22.34,0-9.24.29-20.85.29-20.85,0-13.93,9-22.52,22.93-22.52,0,0,11.85-.35,21.45-.35s21.75.35,21.75.35c13.92,0,22.57,8.59,22.57,22.52,0,0,.3,12,.3,21.45C99.07,63.75,98.77,76.2,98.77,76.2Z" />
            </g>
        </g>
    </g>
</svg>