<svg id="chain" xmlns="http://www.w3.org/2000/svg" viewBox="0 0 980 979.76">
    <defs>
        <style>
            .cls-1 {
            fill: #132136;
            }
        </style>
    </defs>
    <path id="bottom" class="cls-1"
          d="M698.11,13.49c-37.06,6.64-74.37,23.26-104.27,46C571.85,76.36,381,268.29,374.3,280.3L369.44,289l8.69-1.53c34.76-6.13,75.9-4.09,115.77,6.13l20.19,5.11L591,222.29c68-67.73,78.72-77.44,93.54-84.34,51.37-23.77,104-15.33,145.67,24,33,31.18,44.21,56.23,44.21,98.14,0,29.9-4.6,47.28-18.66,68.75-4.09,6.39-51.37,55.46-105.3,109.13-92,91.24-98.91,97.63-115.77,105.29-30.93,13.8-57.5,15.59-90.73,6.39-19.17-5.11-30.16-11.25-47.79-26.07-25.05-20.7-38.08-25.05-60.06-20.45-18.91,4.09-38.59,23.77-42.68,42.68-4.86,23.51,1.53,40.38,23.51,61.08,48.81,46.26,121.91,70.28,189.89,62.1A249.19,249.19,0,0,0,728,620.71C752.8,601.81,934.77,417.8,947.8,398.38c15.59-23.26,29.65-54.95,36.29-81,7.92-31.69,7.92-87.4-.26-117.31C962.11,119,897.19,49.52,818,22.17,783.21,10.17,735.16,6.84,698.11,13.49Z"
          transform="translate(-10 -10.12)"/>
    <path id="top" class="cls-1"
          d="M388.1,331.68c-35,4.85-74.12,20.19-106.06,41.66C263.38,385.86,79.12,568.59,59.69,593.64,3,667.75-6,767.17,37,851.76c31.44,61.85,94.56,113,161.52,130.85,34.25,9.2,85.36,9.71,119.1,1.28,26.07-6.65,57.76-20.7,81-36.29,29.65-19.93,236.66-229,231.55-234.1-.51-.51-11.5.26-24.54,1.79-28.11,3.32-67.21,0-98.14-8.18l-20.19-5.62-75.65,75.39c-43.7,43.45-80.76,78.2-87.41,82-21.47,12-37.57,15.85-65.17,15.59-40.89-.51-66.19-12-96.86-44.47-39.1-41.66-47.79-94-24-145.67,7.16-15.08,17.63-26.58,106.32-115.52,85.61-85.88,100.94-100.19,116-108.11,32.2-17.12,67.73-20.19,100.18-8.94,19.42,6.64,27.6,11.24,44.21,25.3,25,20.7,38.08,25,60.06,20.45,18.91-4.09,38.59-23.77,42.68-42.68,4.86-23.51-1.53-40.38-23.51-61.08-16.36-15.59-44.47-34.25-65.17-43.45C482.92,334.49,426.69,326.31,388.1,331.68Z"
          transform="translate(-10 -10.12)"/>
</svg>
