<svg xmlns="http://www.w3.org/2000/svg" viewBox="0 0 126.37 146.18">
    <defs>
        <style>
            .cls-1 {
                fill: #fff;
            }
        </style>
    </defs>
    <g id="Calque_2" data-name="Calque 2">
        <g id="Calque_1-2" data-name="Calque 1">
            <path class="cls-1"
                d="M124.68,38.45c2.34,7.75,1.94,15.59.64,23.41C122.74,77.35,114.23,87.91,99,92.5c-4.58,1.38-9.34,2.21-14.24,3.34,4.74,5,5.8,11.19,5.74,17.77q-.09,11.49-.12,23c0,3.51,1,5.51,3.11,6a95.39,95.39,0,0,1-51.81,0,3.84,3.84,0,0,0,3-3.78c.22-5.82.06-11.64.06-17.64-2.48.3-4.63.62-6.78.82-11.23,1.08-21.72-3.53-25.28-14.24a21,21,0,0,0-9.55-11.6,10.4,10.4,0,0,1-2-1.65C-.63,92.75-.33,91.52,2,91a9.53,9.53,0,0,1,3.45-.12c5.87,1,9.91,4.63,13,9.53,5.93,9.48,15.08,12.42,25.27,8a2.68,2.68,0,0,0,1.48-1.57A22,22,0,0,1,50.6,95.63c-3-.51-5.66-.89-8.34-1.44-9.57-2-18.2-5.76-24.47-13.67-5-6.25-7.2-13.57-8.24-21.35-1.62-12.16-.21-23.58,8-33.38A2.65,2.65,0,0,0,18,23.66a34.75,34.75,0,0,1,.24-20c1.08-3.74,1.49-4,5.41-3.34C30.84,1.4,37,5,43.12,8.72a4.94,4.94,0,0,0,3.37.56A90.43,90.43,0,0,1,89,9.32a5.18,5.18,0,0,0,3.18-.54c4.36-2.18,8.52-4.78,13-6.67,2.82-1.19,6-1.49,9.12-1.93a2.78,2.78,0,0,1,2.16,1.51c2.53,7,3.23,14.2,1,21.45a3,3,0,0,0,.73,3.29A32.9,32.9,0,0,1,124.68,38.45Z" />
        </g>
    </g>
</svg>