<svg id="telephone" xmlns="http://www.w3.org/2000/svg" viewBox="0 0 6.2 6.2">
    <defs>
        <style>
            .cls-1 {
            fill: #fff;
            }
        </style>
    </defs>
    <path id="tel" class="cls-1"
          d="M6.38,4.66a.68.68,0,0,1,.18.26.83.83,0,0,1,0,.62.68.68,0,0,1-.18.26l-.23.27C4,8.07-1.13,2.94.87.81L1.16.55a.8.8,0,0,1,1.12,0l.49.63a.81.81,0,0,1,0,1.11l-.3.38a3.37,3.37,0,0,0,1.8,1.8l.37-.3a.81.81,0,0,1,1.11,0ZM6,5,5.4,4.55a.24.24,0,0,0-.09-.06.31.31,0,0,0-.22,0A.24.24,0,0,0,5,4.55L4.47,5a.28.28,0,0,1-.13,0L4.22,5a4,4,0,0,1-1.39-.89,4,4,0,0,1-.9-1.39.3.3,0,0,1,0-.26l.42-.53a.24.24,0,0,0,.06-.09.22.22,0,0,0,0-.11.22.22,0,0,0,0-.11.24.24,0,0,0-.06-.09L1.87.88A.28.28,0,0,0,1.67.8a.27.27,0,0,0-.19.08l-.3.26c-1.46,1.75,3,6,4.55,4.52L6,5.39A.29.29,0,0,0,6,5Z"
          transform="translate(-0.42 -0.32)"/>
</svg>
