<?xml version="1.0" encoding="utf-8"?>

<svg version="1.1" id="Calque_1" xmlns="http://www.w3.org/2000/svg" xmlns:xlink="http://www.w3.org/1999/xlink" x="0px" y="0px"
	 viewBox="0 0 436.2 436.1" style="enable-background:new 0 0 436.2 436.1;" xml:space="preserve">
<style type="text/css">
	.st0{fill:#132035;}
</style>
<g id="Calque_2_00000144307962316604161740000015549846330029463462_">
	<g id="Calque_1-2">
		<g>
			<path class="st0" d="M387.4,387v-12.8c0-19.5-0.1-39,0-58.5c0.1-10.4,4.6-18.4,14.2-22.8c9.1-4.2,17.9-3,25.8,3.4
				c5.6,4.4,8.9,11.2,8.8,18.3c0.1,32.5,0.1,65,0,97.5c0,13.3-10.8,24.1-24.1,24.1c-0.1,0-0.1,0-0.2,0c-129.2,0-258.4,0-387.6,0
				c-13.7,0-24.2-10.7-24.3-24.5c0-31.8,0-63.7,0-95.5c0-14.5,10.2-25.3,23.9-25.4c14.2-0.1,24.7,10.3,24.8,25c0.2,21.7,0,43.3,0,65
				v6.3H387.4z"/>
			<path class="st0" d="M193.8,256v-7.5c0-73.8,0-147.7,0-221.5c0-14.2,6.6-23.3,18.9-26.4c13.9-3.5,28.4,6.7,29.4,21
				c0.5,7.6,0.3,15.3,0.3,23c0,68.3,0,136.7,0,205v6.2c2-1.8,3.2-2.7,4.3-3.8c16.5-16.5,33.1-32.9,49.6-49.4
				c10.1-10,25.3-10.2,34.9-0.6s9.5,24.8-0.5,34.9c-31.1,31.1-62.2,62.2-93.3,93.3c-12.1,12.1-26.1,12-38.2-0.1
				c-30.9-30.9-61.8-61.7-92.6-92.6c-10.6-10.6-11-25.7-1-35.7c9.7-9.7,24.8-9.2,35.3,1.2c16.2,16.1,32.3,32.3,48.3,48.5
				C190.3,252.8,191.5,253.9,193.8,256z"/>
		</g>
	</g>
</g>
</svg>
