<svg id="interogation" xmlns="http://www.w3.org/2000/svg" viewBox="0 0 429.75 705.2">
    <defs>
        <style>
            .cls-1 {
            fill: #132136;
            }
        </style>
    </defs>
    <path id="bottom" class="cls-1" d="M536.11,800v3a37,37,0,0,1-74,0v-3a37,37,0,0,1,74,0Z"
          transform="translate(-284.27 -134.8)"/>
    <path id="top" class="cls-1"
          d="M651,197.81A214.76,214.76,0,0,1,536.11,561.19V663.64a37,37,0,0,1-74,0V527.25a37,37,0,0,1,37-37,20.68,20.68,0,0,0,4.63,0A140.76,140.76,0,0,0,639.84,349.6c0-77.64-63.11-140.76-140.75-140.76A140.76,140.76,0,0,0,358.46,345a37.11,37.11,0,1,1-74.17-2.44A214.83,214.83,0,0,1,651,197.81Z"
          transform="translate(-284.27 -134.8)"/>
</svg>
