<svg xmlns="http://www.w3.org/2000/svg" viewBox="0 0 158.76 120.04">
    <defs>
        <style>
            .cls-1 {
                fill: #fff;
            }
        </style>
    </defs>
    <g id="Calque_2" data-name="Calque 2">
        <g id="Calque_1-2" data-name="Calque 1">
            <path class="cls-1"
                d="M158.65,96c-.1-4-2.12-6-6.06-6.52a19.35,19.35,0,0,0-2.41-.09H111.69c-3.16,0-3.17,0-3.17-3.26q0-38.92,0-77.86c0-5.8-2.17-8-8-8-4.62,0-9.24,0-13.86,0-6.61,0-8.44,1.85-8.45,8.55v4.33a78.74,78.74,0,0,1-4.5-11.35A2.32,2.32,0,0,0,71.06,0Q57.53.11,44,0a2.36,2.36,0,0,0-2.63,1.93Q22.85,54.82,4.23,107.69c-1.4,4-2.79,8-4.23,12.09a10.85,10.85,0,0,0,1.31.18c10,0,19.94,0,29.91,0,1.33,0,1.75-.62,2.12-1.7,1.94-5.77,4-11.49,5.89-17.27a2.21,2.21,0,0,1,2.49-1.81q15.95.09,31.89,0A2.19,2.19,0,0,1,76.07,101c1.73,5.38,3.65,10.68,5.29,16.08.65,2.15,1.56,3,4,2.92,13.47-.23,27-.28,40.43-.35,8.65,0,17.3,0,26,0,4.45,0,6.87-2.24,7-6.48Q158.85,104.6,158.65,96ZM47.43,72.38l9.83-32,.45-.07c3.58,10.61,7.15,21.22,10.81,32.05Z" />
        </g>
    </g>
</svg>