<svg id="Camera" xmlns="http://www.w3.org/2000/svg" viewBox="0 0 24.59 22.21">
  <defs>
    <style>
      .cls-1 {
        fill: #ffffff;
      }
    </style>
  </defs>
  <path id="cam" class="cls-1" d="M2.7,10.73a8,8,0,0,1,.4-1.2A3.73,3.73,0,0,1,6.51,7.37c.44,0,.88,0,1.32,0a1.06,1.06,0,0,0,1.11-.77,8.09,8.09,0,0,1,.64-1.44,2.53,2.53,0,0,1,2.18-1.23q3.24,0,6.46,0a2.85,2.85,0,0,1,2.59,2c.09.25.17.5.25.75a1,1,0,0,0,1,.73h1.49a3.84,3.84,0,0,1,3.66,3.25,3.88,3.88,0,0,1,0,.48q0,3.17,0,6.34a1,1,0,0,1-1.51.81.93.93,0,0,1-.41-.84V11.35A1.91,1.91,0,0,0,24.29,9.5a3,3,0,0,0-.95-.21c-.41,0-.83,0-1.25,0a2.91,2.91,0,0,1-2.86-2L19,6.53a1,1,0,0,0-1-.7H12a1,1,0,0,0-1,.72A9.24,9.24,0,0,1,10.37,8,2.7,2.7,0,0,1,8,9.28c-.59,0-1.18,0-1.77.05a1.84,1.84,0,0,0-1.6,1.6,5.12,5.12,0,0,0,0,.67q0,5.25,0,10.5A1.89,1.89,0,0,0,5.72,24a2.54,2.54,0,0,0,1,.2l16.5,0a2,2,0,0,0,2.14-2,1,1,0,0,1,1.91.06,4.75,4.75,0,0,1-.18,1.18,3.79,3.79,0,0,1-3.67,2.67H6.61a3.82,3.82,0,0,1-3.86-3.28.35.35,0,0,0,0-.08Z" transform="translate(-2.7 -3.9)"/>
  <path id="objectif" class="cls-1" d="M15.05,10.25a6,6,0,1,1-6,6A6,6,0,0,1,15.05,10.25Zm0,10.09a4.09,4.09,0,1,0-4-4.12A4.12,4.12,0,0,0,15,20.34Z" transform="translate(-2.7 -3.9)"/>
</svg>
