<svg id="Eye-Open" data-name="Eye-Open" xmlns="http://www.w3.org/2000/svg" xmlns:xlink="http://www.w3.org/1999/xlink" viewBox="0 0 22 14">
  <defs>
    <clipPath id="clip-path">
      <rect y="0.5" width="22" height="13" style="fill: none"/>
    </clipPath>
  </defs>
  <g style="clip-path: url(#clip-path)">
    <g>
      <path d="M13.1,7a2.19,2.19,0,0,1-1.33,2,2.1,2.1,0,0,1-2.33-.49,2.2,2.2,0,0,1-.58-1.12A2.27,2.27,0,0,1,9,6.15a2.17,2.17,0,0,1,.79-1A2.12,2.12,0,0,1,11,4.8a2.15,2.15,0,0,1,1.51.65A2.22,2.22,0,0,1,13.1,7Z" style="fill: #132136"/>
      <path d="M21.12,6a19.45,19.45,0,0,0-5.5-4.31A10.54,10.54,0,0,0,11.38.5a9.5,9.5,0,0,0-4.33.85,19.07,19.07,0,0,0-7,5.52l0,.06A.17.17,0,0,0,0,7a.19.19,0,0,0,0,.07l.05,0c.28.33.56.67.85,1a19,19,0,0,0,5.4,4.2,10.31,10.31,0,0,0,4.24,1.18,9.68,9.68,0,0,0,4.33-.84A17.46,17.46,0,0,0,20.18,9C20.8,8.33,21.38,7.67,22,7,21.67,6.65,21.4,6.32,21.12,6Zm-10.19,5.5a4.36,4.36,0,0,1-2.44-.78,4.48,4.48,0,0,1-1.61-2,4.58,4.58,0,0,1,1-4.91,4.45,4.45,0,0,1,2.26-1.22,4.25,4.25,0,0,1,2.54.27,4.4,4.4,0,0,1,2,1.67A4.62,4.62,0,0,1,15,8.74a4.49,4.49,0,0,1-1,1.46,4.37,4.37,0,0,1-3.13,1.31Z" style="fill: #132136"/>
    </g>
  </g>
</svg>
