<svg xmlns="http://www.w3.org/2000/svg" viewBox="0 0 67.7 126.42">
    <defs>
        <style>
            .cls-1 {
                fill: #fff;
            }
        </style>
    </defs>
    <g id="Calque_2" data-name="Calque 2">
        <g id="Calque_1-2" data-name="Calque 1">
            <path class="cls-1"
                d="M44.77,32.44a7.31,7.31,0,0,0,0,1.05l0-.05V48.29h22L63.24,71.16H44.8v54.29a79.42,79.42,0,0,1-12.33,1,76.6,76.6,0,0,1-12.38-1V71.16H0V48.29H20.09V30.87a26.88,26.88,0,0,1-.16-2.94A27.94,27.94,0,0,1,47.87,0c.73,0,1.47.05,2.2.1L50,.08A120.35,120.35,0,0,1,67.7,1.63V21.09h-10A13.68,13.68,0,0,0,56.21,21,11.43,11.43,0,0,0,44.77,32.44Z" />
        </g>
    </g>
</svg>