<?xml version="1.0" encoding="utf-8"?>
<!-- Generator: Adobe Illustrator 26.0.1, SVG Export Plug-In . SVG Version: 6.00 Build 0)  -->
<svg version="1.1" id="Calque_1" xmlns="http://www.w3.org/2000/svg" xmlns:xlink="http://www.w3.org/1999/xlink" x="0px" y="0px"
	 viewBox="0 0 1280 1280" style="enable-background:new 0 0 1280 1280;" xml:space="preserve">
<style type="text/css">
	.st0{fill:#132136;}
</style>
<path class="st0" d="M586,0.8c0,0.4-2.9,17.4-6.5,37.7c-3.6,20.4-9.5,54.1-13.1,75c-3.7,20.9-6.8,38.1-6.9,38.3
	c-0.1,0.1-6.1,1.4-13.3,2.7c-23.3,4.5-46.7,10.8-69.1,18.7c-11,3.8-11.4,3.9-13.1,2.1c-0.9-1-22.5-26.8-48-57.3s-47-56.3-48-57.3
	c-1.6-1.7-3.8-0.5-47.6,24.8c-25.2,14.6-46,26.9-46.2,27.4c-0.2,0.5,11.5,33.2,25.9,72.7l26.2,71.7l-4,3.6
	c-28.9,26.1-33.3,30.4-61.4,61.5l-3.6,3.9l-70.4-25.7c-38.7-14.2-71.4-25.8-72.6-25.9c-1.9-0.2-5.8,6.1-28.8,45.7
	c-25.3,43.8-26.5,46-24.8,47.6c1,1,27,22.8,57.8,48.5s56.6,47.3,57.3,47.9c1,1,0.5,3.5-2.7,12.7c-8.5,24.9-14.1,45.6-18.5,68.8
	c-1.4,7.4-2.7,13.5-2.8,13.6c-0.2,0.1-17.4,3.2-38.3,6.9c-20.9,3.6-54.6,9.5-75,13.1C18.2,583.1,1.2,586,0.8,586S0,610.3,0,640
	c0,29.7,0.4,54,0.8,54s17.4,2.9,37.7,6.5c20.4,3.6,54.1,9.5,75,13.1c20.9,3.7,38.1,6.8,38.3,6.9c0.1,0.1,1.4,6.2,2.8,13.6
	c4.4,23.2,10,43.9,18.5,68.8c3.2,9.2,3.7,11.7,2.7,12.7c-0.7,0.6-26.5,22.2-57.3,47.9C87.7,889.2,61.7,911,60.7,912
	c-1.7,1.6-0.5,3.8,24.8,47.6c23,39.6,26.9,45.9,28.8,45.7c1.2-0.1,33.9-11.7,72.6-25.9l70.4-25.7l3.6,3.9
	c28.1,31.1,32.5,35.4,61.4,61.5l4,3.6l-26.2,71.7c-14.4,39.5-26.1,72.2-25.9,72.7c0.2,0.5,21,12.8,46.2,27.4
	c43.8,25.3,46,26.5,47.6,24.8c1-1,22.5-26.8,48-57.3s47.1-56.3,48-57.3c1.7-1.8,2.1-1.7,13.1,2.1c22.4,7.9,45.8,14.2,69.1,18.7
	c7.2,1.3,13.2,2.6,13.3,2.7c0.1,0.2,3.2,17.4,6.9,38.3c3.6,20.9,9.5,54.6,13.1,75c3.6,20.3,6.5,37.3,6.5,37.7s24.2,0.8,53.8,0.8
	h53.8l5.2-29.2c2.8-16.1,8.8-50.2,13.3-75.8c4.4-25.6,8.2-46.6,8.4-46.8c0.1-0.1,6.9-1.6,15.1-3.2c25.4-5,42-9.4,67.3-18.1
	c9.2-3.2,11.7-3.7,12.7-2.7c0.6,0.7,22.2,26.5,47.9,57.3c25.7,30.8,47.5,56.8,48.5,57.8c1.6,1.7,3.8,0.5,47.6-24.8
	c25.2-14.6,46-26.9,46.2-27.4c0.2-0.7-16.3-46.5-46.5-129l-5.7-15.4l6.5-5.6c21.7-19,38.4-35.6,57-57l5.5-6.4l18.5,6.7
	c70.8,26,125,45.6,125.7,45.6c0.5,0,9.4-14.7,19.8-32.7c10.3-18.1,22.3-38.8,26.6-46.2c6.3-10.8,7.6-13.7,6.6-14.6
	c-0.7-0.7-26.7-22.5-57.8-48.5s-57.1-47.8-57.8-48.4c-1-1-0.5-3.5,2.7-12.7c8.4-24.6,15-49.1,19.1-71.2c1.2-6.4,2.6-11.7,3-11.7
	s22.7-3.8,49.6-8.5c26.9-4.7,60.4-10.6,74.4-13c14-2.5,25.8-4.5,26.2-4.5c0.5,0,0.8-24.3,0.8-54c0-29.7-0.4-54-0.8-54
	c-0.4,0-17.2-2.9-37.2-6.4c-20.1-3.5-53.9-9.5-75.2-13.2l-38.7-6.8l-2.1-11.5c-4.1-21.9-10.7-46.5-19.1-71
	c-3.2-9.2-3.7-11.7-2.7-12.7c0.7-0.6,26.7-22.4,57.8-48.4s57.1-47.8,57.8-48.5c1-0.9-0.3-3.8-6.6-14.6c-4.3-7.4-16.3-28.1-26.6-46.2
	c-10.4-18-19.3-32.7-19.8-32.7c-0.7,0-54.9,19.6-125.7,45.6l-18.5,6.7l-5.5-6.4c-18.6-21.4-35.3-38-57-57l-6.5-5.6l5.7-15.4
	c30.2-82.5,46.7-128.3,46.5-129c-0.2-0.5-21-12.8-46.2-27.4c-43.8-25.3-46-26.5-47.6-24.8c-1,1-22.8,27-48.5,57.8
	s-47.3,56.6-47.9,57.3c-1,1-3.5,0.5-12.7-2.7c-25.3-8.7-41.9-13.1-67.3-18.1c-8.2-1.6-15-3.1-15.1-3.2c-0.2-0.2-4-21.2-8.4-46.8
	c-4.5-25.6-10.5-59.7-13.3-75.8L693.6,0h-53.8C610.2,0,586,0.4,586,0.8z M660.5,262.4c67.8,2.4,140.5,27.7,198.5,69
	c35.8,25.4,67.5,57.6,92.4,93.6c37.3,53.8,59.8,116.1,65.7,182c1.4,16.1,1.4,49.9,0,66c-9.4,103.9-60.1,198.3-141.6,263.2
	c-49.3,39.3-109.5,66.2-171.5,76.7c-24.6,4.2-30,4.6-64,4.6s-39.4-0.4-64-4.6C458.3,993,355.7,917,302,809.9
	c-29.5-58.7-42.5-119.8-39.8-187C267,503,330.2,391.3,431,324.6c50.2-33.2,104.6-53.1,165.8-60.6c9.6-1.2,40.5-2.8,45.7-2.3
	C644.2,261.8,652.3,262.2,660.5,262.4z"/>
</svg>
