<?xml version="1.0" encoding="utf-8"?>
<!-- Generator: Adobe Illustrator 26.0.1, SVG Export Plug-In . SVG Version: 6.00 Build 0)  -->
<svg version="1.1" id="Calque_1" xmlns="http://www.w3.org/2000/svg" x="0px" y="0px"
     viewBox="0 0 1244 1280" style="enable-background:new 0 0 1244 1280;" xml:space="preserve">
<style type="text/css">
	.st0{fill:#132136;}
</style>
    <path class="st0" d="M1236.5,1204.3c-2.3-4.7-50.5-53.4-265.9-268.9c-4.4-4.4-8.8-8.8-13.1-13.1l0.1-0.1
	C839.4,803.9,827,790.7,828,789.3c0.9-1.1,4.4-5.1,7.7-9.1c78.1-91.4,119-210.7,112.7-329.2c-3.5-66.7-18-124.2-45.9-181.9
	c-18.5-38.2-37.2-67.2-64.7-100.6c-11.6-14-43.2-45.6-57.3-57.3C705.3,48.9,620.5,12.7,525,2.2c-19-2.1-65.4-3-83.5-1.5
	C329,9.3,226.2,55.5,145.8,133.4C38.1,237.9-13.4,384.1,5.3,532.5c17.1,136,92.8,258.1,207.6,334.5c21.1,14.1,29.7,19.1,51.4,30
	c49.4,24.8,99.1,39.6,158,46.9c22.6,2.7,83.4,2.7,106.1,0c44.2-5.5,82.2-15.1,121.9-30.7c27.4-10.7,65.6-30.9,89.6-47.3l8.7-5.9
	l117.5,117.3c6.2,6.2,12.3,12.2,18.3,18.2l0.1-0.1c280.4,279.8,275.6,274.7,281.2,277.9c20.7,11.5,44.9,8.2,61.6-8.4
	C1243.5,1248.6,1247,1225.5,1236.5,1204.3z M659.1,796.8c-105.4,60-235.4,64.5-344.7,11.8C207.8,757.3,132.1,659.5,109.6,544
	c-4-21-5.6-35.3-6.2-60.7c-0.7-28.2,0.4-46.3,4.6-71.2C125.6,306,189.1,212,281.6,155.4c49.5-30.4,102.2-47.5,165.3-53.6
	c2.4-0.2,17.9-0.3,34.4-0.1c23.7,0.3,33.2,0.9,45.4,2.7c85,12.9,158.9,50.6,216.7,110.9c56.4,58.6,90.6,130.6,101.7,213.3
	c2.6,20.3,2.6,67.6,0,88.6c-5.9,45.5-17.3,82.9-37.4,123C775.3,705.1,722.6,760.6,659.1,796.8z"/>
</svg>