<?xml version="1.0" encoding="utf-8"?>
<!-- Generator: Adobe Illustrator 26.0.1, SVG Export Plug-In . SVG Version: 6.00 Build 0)  -->
<svg version="1.1" id="maill" xmlns="http://www.w3.org/2000/svg" xmlns:xlink="http://www.w3.org/1999/xlink" x="0px" y="0px"
	 viewBox="0 0 10 10" style="enable-background:new 0 0 10 10;" xml:space="preserve">
<style type="text/css">
	.st0{fill:#E7E6E8;}
</style>
<path id="mail" class="st0" d="M10,3C9.9,1.9,8.9,1.1,7.8,1.2l-5.5,0C1.1,1.1,0.1,1.9,0,3.1L0,7C0.1,8,1,8.8,2,8.8
	c0.1,0,0.1,0,0.2,0l5.5,0C8.9,8.9,9.9,8.1,10,6.9L10,3z M5.7,5C5.3,5.3,4.8,5.3,4.4,5L1.5,2.7c0.2-0.2,0.5-0.3,0.8-0.3l5.6,0
	c0.3,0,0.6,0.1,0.7,0.3L5.7,5z M8.7,6.9C8.6,7.4,8.2,7.7,7.8,7.6l0,0l-5.6,0c-0.5,0-0.9-0.3-0.9-0.7V4.1l2.1,1.8
	c0.9,0.7,2.2,0.7,3.1,0l2.1-1.8L8.7,6.9z"/>
</svg>
