<svg width="52" height="52" viewBox="0 0 52 52" fill="none" xmlns="http://www.w3.org/2000/svg">
    <path d="M27.8358 52H24.1743C24.0493 51.9578 23.9209 51.9265 23.7906 51.9064C21.5512 51.7297 19.3461 51.2506 17.2352 50.4821C5.4128 46.239 -1.72024 34.1405 0.358646 21.7463C1.34724 15.8537 4.02823 10.8117 8.483 6.81274C14.7088 1.22131 22.0331 -0.89888 30.289 0.343661C34.264 0.94695 38.0282 2.52436 41.2462 4.93537C46.8468 9.07401 50.3225 14.5664 51.5932 21.4262C51.7613 22.335 51.8644 23.2561 52 24.1717V27.8342C51.9661 27.9807 51.9213 28.1258 51.901 28.2751C51.7871 29.1269 51.7274 29.991 51.5606 30.8334C50.3985 36.6975 47.609 41.6473 43.1095 45.5906C39.4055 48.8681 34.826 50.9933 29.9323 51.7056C29.2326 51.806 28.5342 51.901 27.8358 52ZM33.9708 23.9207L28.1585 18.1611C28.0745 18.2357 27.9456 18.3374 27.829 18.4541C23.6929 22.5941 19.5614 26.7386 15.4343 30.8877C15.0799 31.2469 14.8127 31.6826 14.6532 32.1614C14.0986 33.9126 13.6022 35.6883 13.1059 37.4517C12.8225 38.4596 13.5778 39.2016 14.5868 38.9262C15.7408 38.6128 16.8853 38.2642 18.0462 37.9767C19.7142 37.5602 21.0811 36.7192 22.2934 35.4753C25.586 32.0963 28.9546 28.7905 32.3014 25.4631C32.8411 24.9259 33.4188 24.4294 33.9708 23.9207ZM29.5824 16.7924L35.434 22.4747C35.9981 21.863 36.6029 21.2023 37.2132 20.5485C37.502 20.2392 37.8126 19.9503 38.0933 19.6356C39.2459 18.3415 39.2893 16.6106 38.1584 15.3084C37.6484 14.721 37.091 14.1766 36.4917 13.6806C35.3987 12.7759 33.7497 12.7447 32.7109 13.6806C31.6329 14.6478 30.6538 15.7221 29.5824 16.7924Z" fill="#132136"/>
</svg>