<svg id="geoloc" xmlns="http://www.w3.org/2000/svg" viewBox="0 0 19.48 26.39">
    <defs>
        <style>
            .cls-1 {
            fill: #fff;
            }
        </style>
    </defs>
    <path id="interieur" class="cls-1"
          d="M20.69,11.49a5.75,5.75,0,1,1-5.76-5.74A5.76,5.76,0,0,1,20.69,11.49Zm-10,0a4.21,4.21,0,1,0,4.18-4.21A4.24,4.24,0,0,0,10.73,11.5Z"
          transform="translate(-5.19 -1.74)"/>
    <path id="exterieur" class="cls-1"
          d="M15.61,1.74c.58.1,1.17.18,1.74.31a9.82,9.82,0,0,1,7.18,7.69A9.71,9.71,0,0,1,24,14.86a37.9,37.9,0,0,1-3.87,7.45,36.76,36.76,0,0,1-3.2,4.34,11.34,11.34,0,0,1-1.16,1.14,1.11,1.11,0,0,1-1.61,0,11,11,0,0,1-1.49-1.49,43.31,43.31,0,0,1-6.5-10.75,12.51,12.51,0,0,1-.9-3.23,8.59,8.59,0,0,1,.54-4.2,9.67,9.67,0,0,1,7.64-6.27l.84-.12Zm-.73,24.78.2-.17c.2-.21.41-.42.6-.64A42.33,42.33,0,0,0,20,19.57a31.89,31.89,0,0,0,2.44-5,8.52,8.52,0,0,0,.66-4,8.19,8.19,0,0,0-7.77-7.26A8,8,0,0,0,7.6,7.86a7.17,7.17,0,0,0-.8,4.39,12,12,0,0,0,.91,3,42.5,42.5,0,0,0,5.54,9.31C13.75,25.26,14.32,25.86,14.88,26.52Z"
          transform="translate(-5.19 -1.74)"/>
</svg>
