<svg xmlns="http://www.w3.org/2000/svg" viewBox="0 0 209.53 209.53">
    <g id="exclamation" data-name="exclamation">
      <g id="report">
        <path id="Exlamation" d="M104.77,0A104.77,104.77,0,1,0,209.53,104.77,104.77,104.77,0,0,0,104.77,0Zm.1,171.57a13.3,13.3,0,1,1,13.3-13.29A13.3,13.3,0,0,1,104.87,171.57ZM123.54,49.83c-1.06,11.76-2.43,23.49-3.72,35.23-1.16,10.58-2.39,21.15-3.59,31.73-.15,1.32-.16,2.66-.41,4-1.35,7.14-5.75,11.31-11.44,10.92s-9.52-5-10.36-12.14c-2.52-21.46-5.16-42.91-7.71-64.37a54.06,54.06,0,0,1-.4-6.48c0-6.68,3.19-10.16,9.89-10.62,3-.2,6,0,9,0v0c2.67,0,5.34-.09,8,0C120.42,38.33,124.21,42.29,123.54,49.83Z" style="fill: #142035"/>
      </g>
    </g>
</svg>