<svg xmlns="http://www.w3.org/2000/svg" viewBox="0 0 185.54 186.09">
    <g id="Calque_2" data-name="Calque 2">
        <g id="report">
            <g id="reverse">
                <path id="top" d="M33.93,0c1.3,1.65,2.3,2.88,3.25,4.15q3,4,6,8c1.35,1.81,1.71,1.91,3.66.8A91,91,0,0,1,98.68.89a90.46,90.46,0,0,1,51,19.39,91.27,91.27,0,0,1,33.85,54.39,88.3,88.3,0,0,1,.22,36.13c-.53,2.63-1.81,3.91-4.49,4a30.22,30.22,0,0,1-13.8-3c-2.25-1.08-3-3-2.59-5.32,4.2-26.12-3.21-48.39-22.72-66.25C126.08,27.26,109.07,21.48,90,22a68.23,68.23,0,0,0-30.06,8c-2,1.06-2.12,1.51-.72,3.39,2.74,3.66,5.52,7.3,8.26,11,1.2,1.61,1,2.17-1,2.63q-23.7,5.5-47.4,11c-2.66.62-5.32,1.25-8,1.82a9.61,9.61,0,0,1-1.86,0,7.61,7.61,0,0,1,.28-1.81q5.1-12.35,10.28-24.67,6.51-15.53,13-31C33.11,1.71,33.42,1.09,33.93,0Z" style="fill: #142035"/>
                <path id="bottom" d="M92.82,164.73a70.07,70.07,0,0,0,32.75-8c2-1,2.13-1.44.69-3.34q-4.12-5.49-8.27-11c-1.29-1.71-1.06-2.27,1-2.74q26.48-6.1,53-12.2a33.56,33.56,0,0,1,4.27-.43,39.2,39.2,0,0,1-1.18,3.82q-11.12,26.64-22.3,53.24c-1,2.45-1.45,2.49-3.09.32-2.34-3.07-4.65-6.17-7-9.26-1.89-2.51-1.91-2.54-4.59-1A92.09,92.09,0,0,1,56,178.5a91.9,91.9,0,0,1-39.08-31.75A91.06,91.06,0,0,1,.78,105.15a89.26,89.26,0,0,1,.93-29.26c.53-2.62,2-4,4.7-4a31.14,31.14,0,0,1,13.44,3c2.43,1.18,3.06,2.94,2.65,5.6-4.07,26.18,3.41,48.48,23.07,66.3C58.88,158.91,74.86,164.6,92.82,164.73Z" style="fill: #142035"/>
            </g>
        </g>
    </g>
</svg>