<svg width="50" height="50" viewBox="0 0 50 50" fill="none" xmlns="http://www.w3.org/2000/svg">
    <path d="M50.0005 25.0348C50.0135 38.8184 38.7284 50.137 24.7422 49.9974C11.051 49.8607 -0.17072 38.6299 0.00196675 24.6722C0.171775 11.0024 11.382 -0.0673215 25.1854 0.000308243C38.8565 0.0664991 50.0077 11.2686 50.0005 25.0348ZM19.1587 31.5287C19.6206 31.4611 20.0221 31.3374 20.4164 31.3561C24.8142 31.5561 29.1443 32.2425 33.4312 33.2152C35.4272 33.6684 36.9325 32.1345 36.4029 30.1488C34.7585 23.9815 33.1007 17.8172 31.4295 11.6557C31.2859 11.1417 31.01 10.6743 30.6294 10.3002C29.6983 9.42387 28.3399 9.52748 27.3296 10.4729C24.2031 13.4091 20.8333 16.0749 17.2562 18.4417C16.9142 18.6653 16.5401 18.8356 16.1467 18.9467C14.6487 19.3683 13.1377 19.741 11.6382 20.1597C10.1833 20.5655 9.16732 21.4979 8.76006 22.947C7.89663 26.0191 8.51974 28.7948 10.6093 31.2208C11.2827 32.0036 12.1145 32.5547 13.1362 32.7518C13.2925 32.7739 13.4412 32.8335 13.5695 32.9254C13.6978 33.0174 13.8019 33.139 13.873 33.2799C15.2344 35.6599 16.6048 38.0341 17.9844 40.4026C18.6363 41.5293 19.576 41.7739 20.7186 41.1307C21.0784 40.9278 21.4381 40.7192 21.7893 40.512C23.1722 39.7119 23.4025 38.8601 22.6095 37.4902C21.4698 35.5362 20.343 33.5807 19.1587 31.5287ZM42.7981 21.2821C42.6858 18.1481 41.0712 15.1407 37.8045 13.0658C37.2289 12.7003 36.7252 12.778 36.4518 13.2543C36.1784 13.7306 36.3453 14.1421 36.9094 14.5047C40.9589 17.1092 42.2426 21.8649 40.0451 26.114C39.7271 26.7256 39.8221 27.2235 40.2999 27.4609C40.7776 27.6983 41.2223 27.4969 41.5504 26.8853C42.3692 25.3586 42.7995 23.7312 42.7981 21.2821ZM39.0565 21.7037C39.0205 19.6345 38.1513 18.0201 36.4014 16.8962C35.8906 16.5682 35.4128 16.6516 35.1336 17.0847C34.8545 17.5179 34.9897 17.9754 35.4948 18.3208C37.3541 19.6158 37.8549 21.4864 36.8907 23.5412C36.6274 24.1024 36.7339 24.5485 37.1929 24.7902C37.652 25.032 38.1082 24.8593 38.4147 24.2837C38.8415 23.4913 39.0608 22.6037 39.0522 21.7037H39.0565Z" fill="#132136"/>
    <path d="M25.915 14.1895C27.393 19.7135 28.8622 25.1987 30.3516 30.7631C29.2896 30.6192 28.3082 30.4595 27.3224 30.3501C25.3452 30.1299 23.3665 29.9184 21.3849 29.7472C20.8798 29.704 20.6409 29.5644 20.5099 29.0507C19.7645 26.1412 18.9831 23.2403 18.2075 20.3409C18.1413 20.0948 18.1053 19.9322 18.3514 19.7495C20.8179 17.9292 23.2744 16.0932 25.7337 14.2628C25.7921 14.2336 25.8528 14.2091 25.915 14.1895Z" fill="#132136"/>
    <path d="M16.5079 20.6116C17.3426 23.7312 18.1556 26.7659 18.9845 29.861C17.6448 30.2208 16.3381 30.5733 15.0315 30.9215C14.742 31.0134 14.4455 31.0817 14.145 31.1258C13.7865 31.1682 13.4231 31.1265 13.0836 31.0038C12.7441 30.8812 12.4379 30.681 12.1893 30.4193C10.2639 28.448 9.63212 26.1227 10.3617 23.4563C10.5675 22.7023 11.0597 22.1253 11.8008 21.8994C13.3406 21.4361 14.8991 21.0533 16.5079 20.6116Z" fill="#132136"/>
    <path d="M28.9486 11.4341C29.6005 11.4341 29.7285 11.8024 29.835 12.1982C30.3675 14.1839 30.8994 16.1696 31.4309 18.1553C32.5304 22.2659 33.6284 26.3774 34.7249 30.4899C34.9566 31.3618 34.5508 31.7734 33.6845 31.5489C32.2095 31.1662 32.2095 31.1662 31.8137 29.6912C30.3603 24.2511 28.904 18.8115 27.4448 13.3723C27.3469 13.0097 27.3771 12.7737 27.675 12.5334C27.9729 12.2931 28.2017 11.9938 28.4823 11.7435C28.6286 11.6272 28.7846 11.5237 28.9486 11.4341Z" fill="#132136"/>
    <path d="M21.3835 38.7824L19.6019 39.8156L15.42 32.5821C16.0618 32.4108 16.6418 32.241 17.2318 32.1144C17.3089 32.1113 17.3857 32.1268 17.4556 32.1596C17.5255 32.1924 17.5864 32.2416 17.6333 32.3029C18.8795 34.4354 20.1085 36.5722 21.3835 38.7824Z" fill="#132136"/>
</svg>