<?xml version="1.0" encoding="utf-8"?>
<!-- Generator: Adobe Illustrator 26.0.1, SVG Export Plug-In . SVG Version: 6.00 Build 0)  -->
<svg version="1.1" id="Calque_1" xmlns="http://www.w3.org/2000/svg" xmlns:xlink="http://www.w3.org/1999/xlink" x="0px" y="0px"
	 viewBox="0 0 16 15" style="enable-background:new 0 0 16 15;" xml:space="preserve">
<style type="text/css">
	.st0{fill:#FFFFFF;}
</style>
<path class="st0" d="M4.7,2.6c0,0.3-0.1,0.6-0.3,0.9C4.3,3.7,4,3.9,3.7,4.1C3.5,4.2,3.2,4.2,2.9,4.1C2.6,4.1,2.3,3.9,2.1,3.7
	C1.8,3.5,1.7,3.2,1.6,2.9C1.6,2.6,1.6,2.3,1.7,2C1.8,1.8,2,1.5,2.3,1.3c0.3-0.2,0.6-0.3,0.9-0.3c0.4,0,0.8,0.2,1.1,0.5
	S4.7,2.2,4.7,2.6z"/>
<path class="st0" d="M4.5,5.3H1.8v8.5h2.6V5.3z"/>
<path class="st0" d="M14.4,9.2v4.8h-2.7V9.8c0-1,0-2.3-1.4-2.3C9,7.5,8.8,8.6,8.8,9.7v4.2H6.1V5.4h2.5v1.1c0.2-0.4,0.6-0.8,1-1
	c0.4-0.2,0.9-0.4,1.4-0.4C13.9,5.1,14.4,6.9,14.4,9.2z"/>
</svg>
