<svg xmlns="http://www.w3.org/2000/svg" viewBox="0 0 20 17">
  <g id="Calque_2" data-name="Calque 2">
    <g id="Calque_1-2" data-name="Calque 1">
      <path d="M9.91,5.51l2.58,2.43A2.51,2.51,0,0,0,10,5.5Z" style="fill: #132035"/>
      <path d="M8.2,3.9A4.3,4.3,0,0,1,10,3.5,4.49,4.49,0,0,1,14.5,8a4.31,4.31,0,0,1-.29,1.55L17,12.14A14,14,0,0,0,20,8S17,1,10,1a9.52,9.52,0,0,0-4,.85Zm7.67,9.15L13,10.36l-1-.91L8.44,6.06,7,4.69,4.71,2.55,2,0,1,1,3.55,3.4A14,14,0,0,0,0,8s3,7,10,7a9.65,9.65,0,0,0,4.64-1.16L18,17l1-1ZM10,12.5A4.46,4.46,0,0,1,6.1,5.8L7.63,7.24A2.43,2.43,0,0,0,7.5,8,2.5,2.5,0,0,0,10,10.5a2.44,2.44,0,0,0,.93-.18l1.54,1.45A4.45,4.45,0,0,1,10,12.5Z" style="fill: #132035"/>
    </g>
  </g>
</svg>
